<svg xmlns="http://www.w3.org/2000/svg" width="1440" height="900"><path d="M769,489L732,393L705,431Z" fill="#f6ffcc" stroke="#f6ffcc" stroke-width="1.51"/><path d="M769,489L857,496L732,393Z" fill="#f4ffcd" stroke="#f4ffcd" stroke-width="1.51"/><path d="M705,431L638,523L769,489Z" fill="#f5ffcd" stroke="#f5ffcd" stroke-width="1.51"/><path d="M909,631L934,540L857,496Z" fill="#efffd7" stroke="#efffd7" stroke-width="1.51"/><path d="M574,421L638,523L705,431Z" fill="#f7ffd0" stroke="#f7ffd0" stroke-width="1.51"/><path d="M835,277L743,288L732,393Z" fill="#f7ffd8" stroke="#f7ffd8" stroke-width="1.51"/><path d="M732,393L574,421L705,431Z" fill="#f7ffd0" stroke="#f7ffd0" stroke-width="1.51"/><path d="M668,633L808,643L769,489Z" fill="#f1ffd3" stroke="#f1ffd3" stroke-width="1.51"/><path d="M515,536L618,549L638,523Z" fill="#f5ffd6" stroke="#f5ffd6" stroke-width="1.51"/><path d="M918,354L835,277L732,393Z" fill="#f6ffd8" stroke="#f6ffd8" stroke-width="1.51"/><path d="M857,496L918,354L732,393Z" fill="#f4ffd1" stroke="#f4ffd1" stroke-width="1.51"/><path d="M675,250L574,421L732,393Z" fill="#f8ffd6" stroke="#f8ffd6" stroke-width="1.51"/><path d="M857,496L934,540L918,354Z" fill="#f2ffd1" stroke="#f2ffd1" stroke-width="1.51"/><path d="M808,643L857,496L769,489Z" fill="#f1ffd3" stroke="#f1ffd3" stroke-width="1.51"/><path d="M743,288L675,250L732,393Z" fill="#f9ffd7" stroke="#f9ffd7" stroke-width="1.51"/><path d="M712,226L675,250L743,288Z" fill="#f9ffdc" stroke="#f9ffdc" stroke-width="1.51"/><path d="M668,633L769,489L638,523Z" fill="#f3ffd1" stroke="#f3ffd1" stroke-width="1.51"/><path d="M618,549L668,633L638,523Z" fill="#f3ffd5" stroke="#f3ffd5" stroke-width="1.51"/><path d="M753,183L712,226L743,288Z" fill="#f9ffde" stroke="#f9ffde" stroke-width="1.51"/><path d="M918,354L952,280L835,277Z" fill="#f5ffdd" stroke="#f5ffdd" stroke-width="1.51"/><path d="M934,540L970,358L918,354Z" fill="#f2ffd5" stroke="#f2ffd5" stroke-width="1.51"/><path d="M808,643L909,631L857,496Z" fill="#eeffd7" stroke="#eeffd7" stroke-width="1.51"/><path d="M970,358L952,280L918,354Z" fill="#f3ffdd" stroke="#f3ffdd" stroke-width="1.51"/><path d="M835,277L753,183L743,288Z" fill="#f8ffde" stroke="#f8ffde" stroke-width="1.51"/><path d="M561,177L560,269L675,250Z" fill="#fbffe4" stroke="#fbffe4" stroke-width="1.51"/><path d="M817,119L753,183L835,277Z" fill="#f8ffe4" stroke="#f8ffe4" stroke-width="1.51"/><path d="M675,250L560,269L574,421Z" fill="#faffdd" stroke="#faffdd" stroke-width="1.51"/><path d="M561,177L675,250L712,226Z" fill="#fbffe3" stroke="#fbffe3" stroke-width="1.51"/><path d="M618,549L529,598L668,633Z" fill="#f3ffd9" stroke="#f3ffd9" stroke-width="1.51"/><path d="M574,421L515,536L638,523Z" fill="#f6ffd5" stroke="#f6ffd5" stroke-width="1.51"/><path d="M425,445L515,536L574,421Z" fill="#f8ffd8" stroke="#f8ffd8" stroke-width="1.51"/><path d="M668,633L735,703L808,643Z" fill="#eeffd6" stroke="#eeffd6" stroke-width="1.51"/><path d="M808,643L884,696L909,631Z" fill="#ecffdb" stroke="#ecffdb" stroke-width="1.51"/><path d="M643,705L735,703L668,633Z" fill="#efffd9" stroke="#efffd9" stroke-width="1.51"/><path d="M515,536L529,598L618,549Z" fill="#f5ffd9" stroke="#f5ffd9" stroke-width="1.51"/><path d="M934,540L1040,405L970,358Z" fill="#f1ffd5" stroke="#f1ffd5" stroke-width="1.51"/><path d="M970,358L1041,307L952,280Z" fill="#f3ffe0" stroke="#f3ffe0" stroke-width="1.51"/><path d="M1070,472L1040,405L934,540Z" fill="#efffd6" stroke="#efffd6" stroke-width="1.51"/><path d="M909,631L990,615L934,540Z" fill="#ecffda" stroke="#ecffda" stroke-width="1.51"/><path d="M816,796L884,696L808,643Z" fill="#eaffdd" stroke="#eaffdd" stroke-width="1.51"/><path d="M529,598L643,705L668,633Z" fill="#f0ffdb" stroke="#f0ffdb" stroke-width="1.51"/><path d="M945,747L990,615L909,631Z" fill="#eaffde" stroke="#eaffde" stroke-width="1.51"/><path d="M952,280L913,176L835,277Z" fill="#f6ffe3" stroke="#f6ffe3" stroke-width="1.51"/><path d="M926,163L913,176L952,280Z" fill="#f5ffe7" stroke="#f5ffe7" stroke-width="1.51"/><path d="M529,598L516,671L643,705Z" fill="#f1ffdf" stroke="#f1ffdf" stroke-width="1.51"/><path d="M515,536L501,616L529,598Z" fill="#f4ffdd" stroke="#f4ffdd" stroke-width="1.51"/><path d="M366,644L501,616L515,536Z" fill="#f4ffe1" stroke="#f4ffe1" stroke-width="1.51"/><path d="M1040,405L1041,307L970,358Z" fill="#f1ffdd" stroke="#f1ffdd" stroke-width="1.51"/><path d="M990,615L1039,577L934,540Z" fill="#ecffdb" stroke="#ecffdb" stroke-width="1.51"/><path d="M1040,405L1125,438L1041,307Z" fill="#efffdd" stroke="#efffdd" stroke-width="1.51"/><path d="M1039,577L1070,472L934,540Z" fill="#edffd9" stroke="#edffd9" stroke-width="1.51"/><path d="M913,176L817,119L835,277Z" fill="#f7ffe6" stroke="#f7ffe6" stroke-width="1.51"/><path d="M1056,240L926,163L952,280Z" fill="#f4ffe7" stroke="#f4ffe7" stroke-width="1.51"/><path d="M902,140L817,119L913,176Z" fill="#f7ffeb" stroke="#f7ffeb" stroke-width="1.51"/><path d="M708,80L561,177L712,226Z" fill="#fbffe7" stroke="#fbffe7" stroke-width="1.51"/><path d="M708,80L712,226L753,183Z" fill="#fbffe3" stroke="#fbffe3" stroke-width="1.51"/><path d="M437,324L425,445L574,421Z" fill="#faffdd" stroke="#faffdd" stroke-width="1.51"/><path d="M437,324L574,421L560,269Z" fill="#faffe0" stroke="#faffe0" stroke-width="1.51"/><path d="M926,163L902,140L913,176Z" fill="#f6ffea" stroke="#f6ffea" stroke-width="1.51"/><path d="M501,616L516,671L529,598Z" fill="#f3ffe0" stroke="#f3ffe0" stroke-width="1.51"/><path d="M386,672L516,671L501,616Z" fill="#f2ffe4" stroke="#f2ffe4" stroke-width="1.51"/><path d="M439,166L437,324L560,269Z" fill="#fcffea" stroke="#fcffea" stroke-width="1.51"/><path d="M643,705L686,853L735,703Z" fill="#ecffdd" stroke="#ecffdd" stroke-width="1.51"/><path d="M874,830L945,747L884,696Z" fill="#e6fee0" stroke="#e6fee0" stroke-width="1.51"/><path d="M516,671L609,750L643,705Z" fill="#efffe0" stroke="#efffe0" stroke-width="1.51"/><path d="M1041,307L1056,240L952,280Z" fill="#f2ffe4" stroke="#f2ffe4" stroke-width="1.51"/><path d="M926,163L939,106L902,140Z" fill="#f6ffec" stroke="#f6ffec" stroke-width="1.51"/><path d="M1141,256L1056,240L1041,307Z" fill="#f1ffe7" stroke="#f1ffe7" stroke-width="1.51"/><path d="M884,696L945,747L909,631Z" fill="#e9ffde" stroke="#e9ffde" stroke-width="1.51"/><path d="M990,615L1032,700L1039,577Z" fill="#e9ffdf" stroke="#e9ffdf" stroke-width="1.51"/><path d="M816,796L808,643L735,703Z" fill="#ebffdb" stroke="#ebffdb" stroke-width="1.51"/><path d="M817,119L708,80L753,183Z" fill="#faffe6" stroke="#faffe6" stroke-width="1.51"/><path d="M721,-36L708,80L817,119Z" fill="#faffe6" stroke="#faffe6" stroke-width="1.51"/><path d="M686,853L816,796L735,703Z" fill="#e2fad6" stroke="#e2fad6" stroke-width="1.51"/><path d="M437,324L379,429L425,445Z" fill="#fbffe1" stroke="#fbffe1" stroke-width="1.51"/><path d="M439,166L412,315L437,324Z" fill="#fcffeb" stroke="#fcffeb" stroke-width="1.51"/><path d="M1070,472L1125,438L1040,405Z" fill="#eeffd8" stroke="#eeffd8" stroke-width="1.51"/><path d="M1211,462L1125,438L1176,618Z" fill="#e9ffde" stroke="#e9ffde" stroke-width="1.51"/><path d="M1125,438L1070,472L1176,618Z" fill="#ebffdc" stroke="#ebffdc" stroke-width="1.51"/><path d="M945,747L1032,700L990,615Z" fill="#e8ffe1" stroke="#e8ffe1" stroke-width="1.51"/><path d="M874,830L953,760L945,747Z" fill="#dffbde" stroke="#dffbde" stroke-width="1.51"/><path d="M412,315L379,429L437,324Z" fill="#fbffe5" stroke="#fbffe5" stroke-width="1.51"/><path d="M425,445L366,644L515,536Z" fill="#f6ffe0" stroke="#f6ffe0" stroke-width="1.51"/><path d="M902,140L939,106L817,119Z" fill="#f7ffeb" stroke="#f7ffeb" stroke-width="1.51"/><path d="M1036,139L939,106L926,163Z" fill="#f5ffed" stroke="#f5ffed" stroke-width="1.51"/><path d="M953,760L1032,700L945,747Z" fill="#e6ffe3" stroke="#e6ffe3" stroke-width="1.51"/><path d="M609,750L686,853L643,705Z" fill="#e8fddc" stroke="#e8fddc" stroke-width="1.51"/><path d="M516,671L542,759L609,750Z" fill="#eeffe3" stroke="#eeffe3" stroke-width="1.51"/><path d="M423,792L542,759L516,671Z" fill="#eeffe7" stroke="#eeffe7" stroke-width="1.51"/><path d="M561,177L439,166L560,269Z" fill="#fcffeb" stroke="#fcffeb" stroke-width="1.51"/><path d="M589,62L496,140L561,177Z" fill="#fdffef" stroke="#fdffef" stroke-width="1.51"/><path d="M816,796L874,830L884,696Z" fill="#e2fbdc" stroke="#e2fbdc" stroke-width="1.51"/><path d="M1210,712L1176,618L1032,700Z" fill="#e4ffe6" stroke="#e4ffe6" stroke-width="1.51"/><path d="M778,889L874,830L816,796Z" fill="#d1f2d0" stroke="#d1f2d0" stroke-width="1.51"/><path d="M1140,226L1036,139L1056,240Z" fill="#f2ffed" stroke="#f2ffed" stroke-width="1.51"/><path d="M1056,240L1036,139L926,163Z" fill="#f4ffec" stroke="#f4ffec" stroke-width="1.51"/><path d="M607,6L589,62L708,80Z" fill="#fcffea" stroke="#fcffea" stroke-width="1.51"/><path d="M708,80L589,62L561,177Z" fill="#fcffeb" stroke="#fcffeb" stroke-width="1.51"/><path d="M224,426L334,472L379,429Z" fill="#faffe3" stroke="#faffe3" stroke-width="1.51"/><path d="M496,140L439,166L561,177Z" fill="#fdfff1" stroke="#fdfff1" stroke-width="1.51"/><path d="M409,115L439,166L496,140Z" fill="#fefff5" stroke="#fefff5" stroke-width="1.51"/><path d="M597,894L686,853L609,750Z" fill="#d6f3d2" stroke="#d6f3d2" stroke-width="1.51"/><path d="M379,429L334,472L425,445Z" fill="#faffde" stroke="#faffde" stroke-width="1.51"/><path d="M265,287L379,429L412,315Z" fill="#fcffe9" stroke="#fcffe9" stroke-width="1.51"/><path d="M1125,438L1141,256L1041,307Z" fill="#efffe2" stroke="#efffe2" stroke-width="1.51"/><path d="M366,644L386,672L501,616Z" fill="#f2ffe6" stroke="#f2ffe6" stroke-width="1.51"/><path d="M542,759L597,894L609,750Z" fill="#dff8da" stroke="#dff8da" stroke-width="1.51"/><path d="M1141,256L1140,226L1056,240Z" fill="#f0ffeb" stroke="#f0ffeb" stroke-width="1.51"/><path d="M334,472L366,644L425,445Z" fill="#f7ffe2" stroke="#f7ffe2" stroke-width="1.51"/><path d="M686,853L778,889L816,796Z" fill="#d0f0cc" stroke="#d0f0cc" stroke-width="1.51"/><path d="M1176,618L1070,472L1039,577Z" fill="#eaffde" stroke="#eaffde" stroke-width="1.51"/><path d="M1125,438L1289,371L1141,256Z" fill="#ebfee2" stroke="#ebfee2" stroke-width="1.51"/><path d="M1141,256L1248,254L1140,226Z" fill="#eeffec" stroke="#eeffec" stroke-width="1.51"/><path d="M1032,700L1176,618L1039,577Z" fill="#e7ffe1" stroke="#e7ffe1" stroke-width="1.51"/><path d="M1158,797L1032,700L1112,844Z" fill="#dafae3" stroke="#dafae3" stroke-width="1.51"/><path d="M485,-25L409,115L496,140Z" fill="#fefff4" stroke="#fefff4" stroke-width="1.51"/><path d="M680,-32L607,6L708,80Z" fill="#fbffe8" stroke="#fbffe8" stroke-width="1.51"/><path d="M939,106L871,-12L817,119Z" fill="#f7ffea" stroke="#f7ffea" stroke-width="1.51"/><path d="M1014,-18L871,-12L939,106Z" fill="#f6ffec" stroke="#f6ffec" stroke-width="1.51"/><path d="M1014,-18L939,106L1036,139Z" fill="#f4ffee" stroke="#f4ffee" stroke-width="1.51"/><path d="M439,166L320,167L412,315Z" fill="#fdfff2" stroke="#fdfff2" stroke-width="1.51"/><path d="M485,-25L496,140L589,62Z" fill="#fdfff0" stroke="#fdfff0" stroke-width="1.51"/><path d="M871,-12L721,-36L817,119Z" fill="#f9ffe8" stroke="#f9ffe8" stroke-width="1.51"/><path d="M721,-36L680,-32L708,80Z" fill="#fbffe6" stroke="#fbffe6" stroke-width="1.51"/><path d="M874,830L941,883L953,760Z" fill="#d2f4d6" stroke="#d2f4d6" stroke-width="1.51"/><path d="M887,909L941,883L874,830Z" fill="#c5eccc" stroke="#c5eccc" stroke-width="1.51"/><path d="M487,882L597,894L542,759Z" fill="#d3f1d5" stroke="#d3f1d5" stroke-width="1.51"/><path d="M686,853L682,941L778,889Z" fill="#c4eac3" stroke="#c4eac3" stroke-width="1.51"/><path d="M324,792L423,792L386,672Z" fill="#efffee" stroke="#efffee" stroke-width="1.51"/><path d="M386,672L423,792L516,671Z" fill="#f0ffe9" stroke="#f0ffe9" stroke-width="1.51"/><path d="M778,889L887,909L874,830Z" fill="#c6ecca" stroke="#c6ecca" stroke-width="1.51"/><path d="M784,1000L887,909L778,889Z" fill="#b7e3c0" stroke="#b7e3c0" stroke-width="1.51"/><path d="M597,894L682,941L686,853Z" fill="#c4e9c6" stroke="#c4e9c6" stroke-width="1.51"/><path d="M409,115L320,167L439,166Z" fill="#fefff8" stroke="#fefff8" stroke-width="1.51"/><path d="M320,167L265,287L412,315Z" fill="#fdfff2" stroke="#fdfff2" stroke-width="1.51"/><path d="M334,472L236,555L366,644Z" fill="#f7ffe8" stroke="#f7ffe8" stroke-width="1.51"/><path d="M579,1088L719,1038L682,941Z" fill="#a0d6b1" stroke="#a0d6b1" stroke-width="1.51"/><path d="M423,792L487,882L542,759Z" fill="#def6de" stroke="#def6de" stroke-width="1.51"/><path d="M1081,2L1014,-18L1036,139Z" fill="#f3fff0" stroke="#f3fff0" stroke-width="1.51"/><path d="M871,-12L751,-105L721,-36Z" fill="#f9ffe7" stroke="#f9ffe7" stroke-width="1.51"/><path d="M1213,121L1081,2L1036,139Z" fill="#f1fff2" stroke="#f1fff2" stroke-width="1.51"/><path d="M1289,371L1248,254L1141,256Z" fill="#e4fae2" stroke="#e4fae2" stroke-width="1.51"/><path d="M1176,618L1289,517L1211,462Z" fill="#def9d9" stroke="#def9d9" stroke-width="1.51"/><path d="M1211,462L1289,371L1125,438Z" fill="#e6fbd9" stroke="#e6fbd9" stroke-width="1.51"/><path d="M1158,797L1210,712L1032,700Z" fill="#e2ffe9" stroke="#e2ffe9" stroke-width="1.51"/><path d="M265,287L224,426L379,429Z" fill="#fcffe9" stroke="#fcffe9" stroke-width="1.51"/><path d="M243,723L324,792L386,672Z" fill="#f0fff0" stroke="#f0fff0" stroke-width="1.51"/><path d="M224,545L236,555L334,472Z" fill="#f8ffe9" stroke="#f8ffe9" stroke-width="1.51"/><path d="M423,792L405,936L487,882Z" fill="#cdedd7" stroke="#cdedd7" stroke-width="1.51"/><path d="M1289,517L1289,371L1211,462Z" fill="#dbf6d1" stroke="#dbf6d1" stroke-width="1.51"/><path d="M607,6L485,-25L589,62Z" fill="#fdffee" stroke="#fdffee" stroke-width="1.51"/><path d="M369,1L277,156L320,167Z" fill="#fffffc" stroke="#fffffc" stroke-width="1.51"/><path d="M535,-116L485,-25L607,6Z" fill="#fdffef" stroke="#fdffef" stroke-width="1.51"/><path d="M666,-106L607,6L680,-32Z" fill="#fcffe9" stroke="#fcffe9" stroke-width="1.51"/><path d="M1112,844L953,760L941,883Z" fill="#cff4d8" stroke="#cff4d8" stroke-width="1.51"/><path d="M1112,844L1032,700L953,760Z" fill="#dffce4" stroke="#dffce4" stroke-width="1.51"/><path d="M1274,604L1289,517L1176,618Z" fill="#d9f7d9" stroke="#d9f7d9" stroke-width="1.51"/><path d="M1118,860L1112,844L941,883Z" fill="#c4eed4" stroke="#c4eed4" stroke-width="1.51"/><path d="M243,723L386,672L366,644Z" fill="#f2ffed" stroke="#f2ffed" stroke-width="1.51"/><path d="M195,472L224,545L334,472Z" fill="#f9ffe7" stroke="#f9ffe7" stroke-width="1.51"/><path d="M1210,712L1274,604L1176,618Z" fill="#dbfbe0" stroke="#dbfbe0" stroke-width="1.51"/><path d="M721,-36L666,-106L680,-32Z" fill="#fbffe7" stroke="#fbffe7" stroke-width="1.51"/><path d="M868,-147L751,-105L871,-12Z" fill="#f8ffe9" stroke="#f8ffe9" stroke-width="1.51"/><path d="M224,426L195,472L334,472Z" fill="#fbffe5" stroke="#fbffe5" stroke-width="1.51"/><path d="M104,336L212,432L224,426Z" fill="#fcffe9" stroke="#fcffe9" stroke-width="1.51"/><path d="M1014,-18L974,-81L871,-12Z" fill="#f5ffed" stroke="#f5ffed" stroke-width="1.51"/><path d="M1213,121L1036,139L1140,226Z" fill="#f1fff2" stroke="#f1fff2" stroke-width="1.51"/><path d="M751,-105L666,-106L721,-36Z" fill="#fbffe5" stroke="#fbffe5" stroke-width="1.51"/><path d="M1112,844L1118,860L1158,797Z" fill="#caf2db" stroke="#caf2db" stroke-width="1.51"/><path d="M1039,974L1118,860L941,883Z" fill="#b8e7cc" stroke="#b8e7cc" stroke-width="1.51"/><path d="M320,167L277,156L265,287Z" fill="#fffff9" stroke="#fffff9" stroke-width="1.51"/><path d="M265,287L104,336L224,426Z" fill="#fcffee" stroke="#fcffee" stroke-width="1.51"/><path d="M369,1L320,167L409,115Z" fill="#fefff9" stroke="#fefff9" stroke-width="1.51"/><path d="M1261,190L1213,121L1140,226Z" fill="#e9fcef" stroke="#e9fcef" stroke-width="1.51"/><path d="M1261,190L1140,226L1248,254Z" fill="#e7fbe9" stroke="#e7fbe9" stroke-width="1.51"/><path d="M243,723L366,644L236,555Z" fill="#f4ffee" stroke="#f4ffee" stroke-width="1.51"/><path d="M887,909L940,984L941,883Z" fill="#b6e4c5" stroke="#b6e4c5" stroke-width="1.51"/><path d="M682,941L784,1000L778,889Z" fill="#b6e2bb" stroke="#b6e2bb" stroke-width="1.51"/><path d="M719,1038L784,1000L682,941Z" fill="#a8dab3" stroke="#a8dab3" stroke-width="1.51"/><path d="M104,336L195,472L212,432Z" fill="#fbffe8" stroke="#fbffe8" stroke-width="1.51"/><path d="M212,432L195,472L224,426Z" fill="#fbffe5" stroke="#fbffe5" stroke-width="1.51"/><path d="M1358,316L1261,190L1248,254Z" fill="#d9f3df" stroke="#d9f3df" stroke-width="1.51"/><path d="M1081,-106L974,-81L1014,-18Z" fill="#f4ffef" stroke="#f4ffef" stroke-width="1.51"/><path d="M784,1000L904,994L887,909Z" fill="#acdebb" stroke="#acdebb" stroke-width="1.51"/><path d="M904,994L940,984L887,909Z" fill="#acdfbe" stroke="#acdfbe" stroke-width="1.51"/><path d="M485,-25L369,1L409,115Z" fill="#fefff6" stroke="#fefff6" stroke-width="1.51"/><path d="M361,-122L369,1L485,-25Z" fill="#fefff7" stroke="#fefff7" stroke-width="1.51"/><path d="M157,640L236,555L224,545Z" fill="#f6ffeb" stroke="#f6ffeb" stroke-width="1.51"/><path d="M157,640L243,723L236,555Z" fill="#f4ffef" stroke="#f4ffef" stroke-width="1.51"/><path d="M974,-81L868,-147L871,-12Z" fill="#f7ffeb" stroke="#f7ffeb" stroke-width="1.51"/><path d="M751,-105L868,-147L666,-106Z" fill="#faffe6" stroke="#faffe6" stroke-width="1.51"/><path d="M868,-147L535,-116L666,-106Z" fill="#fbffe7" stroke="#fbffe7" stroke-width="1.51"/><path d="M666,-106L535,-116L607,6Z" fill="#fcffec" stroke="#fcffec" stroke-width="1.51"/><path d="M528,1049L682,941L597,894Z" fill="#b2dfbe" stroke="#b2dfbe" stroke-width="1.51"/><path d="M784,1000L854,1102L904,994Z" fill="#99d4b0" stroke="#99d4b0" stroke-width="1.51"/><path d="M528,1049L597,894L487,882Z" fill="#b8e2c5" stroke="#b8e2c5" stroke-width="1.51"/><path d="M940,984L1039,974L941,883Z" fill="#aee1c3" stroke="#aee1c3" stroke-width="1.51"/><path d="M933,1097L1039,974L940,984Z" fill="#99d6b7" stroke="#99d6b7" stroke-width="1.51"/><path d="M933,1097L940,984L904,994Z" fill="#99d5b4" stroke="#99d5b4" stroke-width="1.51"/><path d="M535,-116L491,-106L485,-25Z" fill="#fdfff1" stroke="#fdfff1" stroke-width="1.51"/><path d="M324,792L405,936L423,792Z" fill="#d6f2df" stroke="#d6f2df" stroke-width="1.51"/><path d="M241,853L405,936L324,792Z" fill="#d1efdf" stroke="#d1efdf" stroke-width="1.51"/><path d="M974,-81L1081,-106L868,-147Z" fill="#f5ffee" stroke="#f5ffee" stroke-width="1.51"/><path d="M1081,2L1081,-106L1014,-18Z" fill="#f3fff1" stroke="#f3fff1" stroke-width="1.51"/><path d="M1213,121L1153,-23L1081,2Z" fill="#f0fff4" stroke="#f0fff4" stroke-width="1.51"/><path d="M1246,67L1153,-23L1213,121Z" fill="#eafcf1" stroke="#eafcf1" stroke-width="1.51"/><path d="M1289,371L1358,316L1248,254Z" fill="#d6f3d8" stroke="#d6f3d8" stroke-width="1.51"/><path d="M1261,190L1246,67L1213,121Z" fill="#e3f8ed" stroke="#e3f8ed" stroke-width="1.51"/><path d="M1416,442L1358,316L1289,371Z" fill="#cbedcc" stroke="#cbedcc" stroke-width="1.51"/><path d="M1404,486L1289,371L1289,517Z" fill="#ceefca" stroke="#ceefca" stroke-width="1.51"/><path d="M1373,163L1246,67L1261,190Z" fill="#d9f3e7" stroke="#d9f3e7" stroke-width="1.51"/><path d="M277,156L193,166L265,287Z" fill="#fffffa" stroke="#fffffa" stroke-width="1.51"/><path d="M222,56L193,166L277,156Z" fill="#ffffff" stroke="#ffffff" stroke-width="1.51"/><path d="M1274,604L1354,624L1289,517Z" fill="#cef1d3" stroke="#cef1d3" stroke-width="1.51"/><path d="M1345,659L1354,624L1274,604Z" fill="#c9efd3" stroke="#c9efd3" stroke-width="1.51"/><path d="M1345,659L1274,604L1210,712Z" fill="#d0f4da" stroke="#d0f4da" stroke-width="1.51"/><path d="M1345,659L1210,712L1312,749Z" fill="#ccf3db" stroke="#ccf3db" stroke-width="1.51"/><path d="M1210,712L1275,844L1312,749Z" fill="#caf3de" stroke="#caf3de" stroke-width="1.51"/><path d="M1210,712L1158,797L1275,844Z" fill="#cff6e1" stroke="#cff6e1" stroke-width="1.51"/><path d="M205,820L241,853L324,792Z" fill="#dcf5e9" stroke="#dcf5e9" stroke-width="1.51"/><path d="M90,578L157,640L224,545Z" fill="#f6ffec" stroke="#f6ffec" stroke-width="1.51"/><path d="M81,514L224,545L195,472Z" fill="#f9ffe8" stroke="#f9ffe8" stroke-width="1.51"/><path d="M1153,-23L1081,-106L1081,2Z" fill="#f2fff2" stroke="#f2fff2" stroke-width="1.51"/><path d="M1192,-134L1081,-106L1153,-23Z" fill="#f1fff4" stroke="#f1fff4" stroke-width="1.51"/><path d="M1193,907L1158,797L1118,860Z" fill="#c3efd9" stroke="#c3efd9" stroke-width="1.51"/><path d="M1129,1022L1193,907L1118,860Z" fill="#aee4cc" stroke="#aee4cc" stroke-width="1.51"/><path d="M193,166L141,256L265,287Z" fill="#fefff7" stroke="#fefff7" stroke-width="1.51"/><path d="M157,640L183,728L243,723Z" fill="#f2fff2" stroke="#f2fff2" stroke-width="1.51"/><path d="M1354,624L1404,486L1289,517Z" fill="#c8edcc" stroke="#c8edcc" stroke-width="1.51"/><path d="M1510,548L1404,486L1354,624Z" fill="#b9e5c4" stroke="#b9e5c4" stroke-width="1.51"/><path d="M405,936L464,1021L487,882Z" fill="#b8e2c9" stroke="#b8e2c9" stroke-width="1.51"/><path d="M354,1045L464,1021L405,936Z" fill="#a9d9c3" stroke="#a9d9c3" stroke-width="1.51"/><path d="M464,1021L528,1049L487,882Z" fill="#addcc1" stroke="#addcc1" stroke-width="1.51"/><path d="M1193,907L1255,862L1158,797Z" fill="#bdecd6" stroke="#bdecd6" stroke-width="1.51"/><path d="M82,144L64,232L141,256Z" fill="#fefff9" stroke="#fefff9" stroke-width="1.51"/><path d="M369,1L222,56L277,156Z" fill="#fffffd" stroke="#fffffd" stroke-width="1.51"/><path d="M217,33L222,56L369,1Z" fill="#ffffff" stroke="#ffffff" stroke-width="1.51"/><path d="M1255,862L1275,844L1158,797Z" fill="#beedd6" stroke="#beedd6" stroke-width="1.51"/><path d="M1404,486L1416,442L1289,371Z" fill="#c8ebc6" stroke="#c8ebc6" stroke-width="1.51"/><path d="M1358,316L1373,163L1261,190Z" fill="#d1efdd" stroke="#d1efdd" stroke-width="1.51"/><path d="M141,256L104,336L265,287Z" fill="#fdfff3" stroke="#fdfff3" stroke-width="1.51"/><path d="M64,232L104,336L141,256Z" fill="#fefff4" stroke="#fefff4" stroke-width="1.51"/><path d="M205,820L324,792L243,723Z" fill="#e8fbf0" stroke="#e8fbf0" stroke-width="1.51"/><path d="M183,728L205,820L243,723Z" fill="#eefff4" stroke="#eefff4" stroke-width="1.51"/><path d="M52,819L205,820L183,728Z" fill="#e5faee" stroke="#e5faee" stroke-width="1.51"/><path d="M812,1115L854,1102L784,1000Z" fill="#94d1ac" stroke="#94d1ac" stroke-width="1.51"/><path d="M1039,974L1129,1022L1118,860Z" fill="#a9e0c6" stroke="#a9e0c6" stroke-width="1.51"/><path d="M812,1115L784,1000L719,1038Z" fill="#96d1ab" stroke="#96d1ab" stroke-width="1.51"/><path d="M528,1049L579,1088L682,941Z" fill="#a0d6b4" stroke="#a0d6b4" stroke-width="1.51"/><path d="M454,1118L579,1088L528,1049Z" fill="#98d1b3" stroke="#98d1b3" stroke-width="1.51"/><path d="M222,56L165,102L193,166Z" fill="#ffffff" stroke="#ffffff" stroke-width="1.51"/><path d="M203,6L217,33L230,-78Z" fill="#ffffff" stroke="#ffffff" stroke-width="1.51"/><path d="M1246,67L1280,-25L1153,-23Z" fill="#e6faef" stroke="#e6faef" stroke-width="1.51"/><path d="M1468,327L1373,163L1358,316Z" fill="#c4e8d1" stroke="#c4e8d1" stroke-width="1.51"/><path d="M681,1132L812,1115L719,1038Z" fill="#96d1a9" stroke="#96d1a9" stroke-width="1.51"/><path d="M104,336L81,514L195,472Z" fill="#fbffe6" stroke="#fbffe6" stroke-width="1.51"/><path d="M157,640L95,685L183,728Z" fill="#f2fff1" stroke="#f2fff1" stroke-width="1.51"/><path d="M217,33L165,102L222,56Z" fill="#ffffff" stroke="#ffffff" stroke-width="1.51"/><path d="M81,514L90,578L224,545Z" fill="#f8ffea" stroke="#f8ffea" stroke-width="1.51"/><path d="M1416,442L1437,411L1358,316Z" fill="#c1e8c6" stroke="#c1e8c6" stroke-width="1.51"/><path d="M1510,548L1437,411L1416,442Z" fill="#b7e2bc" stroke="#b7e2bc" stroke-width="1.51"/><path d="M1510,548L1416,442L1404,486Z" fill="#b8e3bf" stroke="#b8e3bf" stroke-width="1.51"/><path d="M1510,548L1354,624L1501,649Z" fill="#b1e2c3" stroke="#b1e2c3" stroke-width="1.51"/><path d="M812,1115L933,1097L854,1102Z" fill="#92d1ae" stroke="#92d1ae" stroke-width="1.51"/><path d="M854,1102L933,1097L904,994Z" fill="#91d1af" stroke="#91d1af" stroke-width="1.51"/><path d="M1193,907L1259,990L1255,862Z" fill="#a4dfc8" stroke="#a4dfc8" stroke-width="1.51"/><path d="M491,-106L361,-122L485,-25Z" fill="#fefff5" stroke="#fefff5" stroke-width="1.51"/><path d="M535,-116L361,-122L491,-106Z" fill="#fefff4" stroke="#fefff4" stroke-width="1.51"/><path d="M868,-147L361,-122L535,-116Z" fill="#fcffec" stroke="#fcffec" stroke-width="1.51"/><path d="M1105,1063L1129,1022L1039,974Z" fill="#96d6bb" stroke="#96d6bb" stroke-width="1.51"/><path d="M1424,898L1397,811L1275,844Z" fill="#9fdcc5" stroke="#9fdcc5" stroke-width="1.51"/><path d="M579,1088L681,1132L719,1038Z" fill="#97d1ac" stroke="#97d1ac" stroke-width="1.51"/><path d="M1414,104L1280,-25L1246,67Z" fill="#d6f1e5" stroke="#d6f1e5" stroke-width="1.51"/><path d="M217,33L203,6L165,102Z" fill="#ffffff" stroke="#ffffff" stroke-width="1.51"/><path d="M230,-78L217,33L369,1Z" fill="#fffffe" stroke="#fffffe" stroke-width="1.51"/><path d="M1280,-25L1247,-64L1153,-23Z" fill="#e6faef" stroke="#e6faef" stroke-width="1.51"/><path d="M52,819L95,685L-67,712Z" fill="#f0fff4" stroke="#f0fff4" stroke-width="1.51"/><path d="M90,578L95,685L157,640Z" fill="#f4ffee" stroke="#f4ffee" stroke-width="1.51"/><path d="M185,929L241,853L205,820Z" fill="#cfeee1" stroke="#cfeee1" stroke-width="1.51"/><path d="M185,929L251,941L241,853Z" fill="#c4e8da" stroke="#c4e8da" stroke-width="1.51"/><path d="M241,853L251,941L405,936Z" fill="#c3e7d8" stroke="#c3e7d8" stroke-width="1.51"/><path d="M464,1021L454,1118L528,1049Z" fill="#98d1b6" stroke="#98d1b6" stroke-width="1.51"/><path d="M1259,990L1275,844L1255,862Z" fill="#a5dfc8" stroke="#a5dfc8" stroke-width="1.51"/><path d="M933,1097L1105,1063L1039,974Z" fill="#91d2b5" stroke="#91d2b5" stroke-width="1.51"/><path d="M1247,-64L1192,-134L1153,-23Z" fill="#ebfdf2" stroke="#ebfdf2" stroke-width="1.51"/><path d="M1081,-106L1192,-134L868,-147Z" fill="#f3fff0" stroke="#f3fff0" stroke-width="1.51"/><path d="M1409,-138L1192,-134L1247,-64Z" fill="#dbf4e8" stroke="#dbf4e8" stroke-width="1.51"/><path d="M1437,411L1468,327L1358,316Z" fill="#bfe6c7" stroke="#bfe6c7" stroke-width="1.51"/><path d="M1373,163L1414,104L1246,67Z" fill="#d0eee2" stroke="#d0eee2" stroke-width="1.51"/><path d="M104,336L38,353L81,514Z" fill="#fcffe9" stroke="#fcffe9" stroke-width="1.51"/><path d="M82,144L141,256L193,166Z" fill="#fffffb" stroke="#fffffb" stroke-width="1.51"/><path d="M82,144L193,166L165,102Z" fill="#ffffff" stroke="#ffffff" stroke-width="1.51"/><path d="M64,232L38,353L104,336Z" fill="#fdfff1" stroke="#fdfff1" stroke-width="1.51"/><path d="M-60,576L95,685L90,578Z" fill="#f5ffed" stroke="#f5ffed" stroke-width="1.51"/><path d="M251,941L354,1045L405,936Z" fill="#b1ddcb" stroke="#b1ddcb" stroke-width="1.51"/><path d="M579,1088L454,1118L681,1132Z" fill="#98d1b1" stroke="#98d1b1" stroke-width="1.51"/><path d="M100,-47L82,144L165,102Z" fill="#ffffff" stroke="#ffffff" stroke-width="1.51"/><path d="M-54,329L-50,353L38,353Z" fill="#fdffee" stroke="#fdffee" stroke-width="1.51"/><path d="M203,6L100,-47L165,102Z" fill="#ffffff" stroke="#ffffff" stroke-width="1.51"/><path d="M361,-122L230,-78L369,1Z" fill="#fffffc" stroke="#fffffc" stroke-width="1.51"/><path d="M1280,-25L1409,-138L1247,-64Z" fill="#d6f1e5" stroke="#d6f1e5" stroke-width="1.51"/><path d="M1493,170L1414,104L1373,163Z" fill="#c0e6d8" stroke="#c0e6d8" stroke-width="1.51"/><path d="M1312,749L1397,811L1345,659Z" fill="#bfedd6" stroke="#bfedd6" stroke-width="1.51"/><path d="M1437,411L1527,368L1468,327Z" fill="#b4e0c0" stroke="#b4e0c0" stroke-width="1.51"/><path d="M1275,844L1397,811L1312,749Z" fill="#b5e8d1" stroke="#b5e8d1" stroke-width="1.51"/><path d="M1259,990L1193,907L1129,1022Z" fill="#9cdbc3" stroke="#9cdbc3" stroke-width="1.51"/><path d="M354,1045L454,1118L464,1021Z" fill="#99d1b9" stroke="#99d1b9" stroke-width="1.51"/><path d="M1148,1104L1259,990L1129,1022Z" fill="#8cd3ba" stroke="#8cd3ba" stroke-width="1.51"/><path d="M251,941L304,1050L354,1045Z" fill="#a6d8c7" stroke="#a6d8c7" stroke-width="1.51"/><path d="M354,1045L351,1140L454,1118Z" fill="#99d1bb" stroke="#99d1bb" stroke-width="1.51"/><path d="M109,933L185,929L205,820Z" fill="#c8eadd" stroke="#c8eadd" stroke-width="1.51"/><path d="M196,1045L304,1050L251,941Z" fill="#a6d8c9" stroke="#a6d8c9" stroke-width="1.51"/><path d="M1501,649L1354,624L1345,659Z" fill="#b9e8cb" stroke="#b9e8cb" stroke-width="1.51"/><path d="M1105,1063L1148,1104L1129,1022Z" fill="#8ad1b7" stroke="#8ad1b7" stroke-width="1.51"/><path d="M933,1097L1148,1104L1105,1063Z" fill="#8cd1b4" stroke="#8cd1b4" stroke-width="1.51"/><path d="M812,1115L1148,1104L933,1097Z" fill="#90d1b1" stroke="#90d1b1" stroke-width="1.51"/><path d="M1367,1141L1148,1104L812,1115Z" fill="#8ad1b6" stroke="#8ad1b6" stroke-width="1.51"/><path d="M1397,811L1477,719L1345,659Z" fill="#b5e7d0" stroke="#b5e7d0" stroke-width="1.51"/><path d="M1483,771L1477,719L1397,811Z" fill="#a7e0c9" stroke="#a7e0c9" stroke-width="1.51"/><path d="M1477,719L1501,649L1345,659Z" fill="#b0e4c9" stroke="#b0e4c9" stroke-width="1.51"/><path d="M1468,327L1493,170L1373,163Z" fill="#bce4d0" stroke="#bce4d0" stroke-width="1.51"/><path d="M1510,548L1527,368L1437,411Z" fill="#b0deb8" stroke="#b0deb8" stroke-width="1.51"/><path d="M1560,283L1527,368L1702,309Z" fill="#9ed4b7" stroke="#9ed4b7" stroke-width="1.51"/><path d="M1414,104L1424,-13L1280,-25Z" fill="#caebde" stroke="#caebde" stroke-width="1.51"/><path d="M1560,283L1493,170L1468,327Z" fill="#b0ddc5" stroke="#b0ddc5" stroke-width="1.51"/><path d="M1477,719L1550,731L1501,649Z" fill="#a2ddc2" stroke="#a2ddc2" stroke-width="1.51"/><path d="M1424,898L1483,771L1397,811Z" fill="#99d9c1" stroke="#99d9c1" stroke-width="1.51"/><path d="M1424,898L1275,844L1259,990Z" fill="#96d8c0" stroke="#96d8c0" stroke-width="1.51"/><path d="M292,1151L351,1140L304,1050Z" fill="#99d1bf" stroke="#99d1bf" stroke-width="1.51"/><path d="M95,685L52,819L183,728Z" fill="#f0fff4" stroke="#f0fff4" stroke-width="1.51"/><path d="M-60,576L90,578L81,514Z" fill="#f7ffeb" stroke="#f7ffeb" stroke-width="1.51"/><path d="M1444,6L1424,-13L1414,104Z" fill="#c0e5d8" stroke="#c0e5d8" stroke-width="1.51"/><path d="M304,1050L351,1140L354,1045Z" fill="#9ad1be" stroke="#9ad1be" stroke-width="1.51"/><path d="M454,1118L351,1140L681,1132Z" fill="#98d1b5" stroke="#98d1b5" stroke-width="1.51"/><path d="M196,1045L251,941L185,929Z" fill="#b2ded0" stroke="#b2ded0" stroke-width="1.51"/><path d="M1413,1016L1424,898L1259,990Z" fill="#7ccab1" stroke="#7ccab1" stroke-width="1.51"/><path d="M38,353L-80,460L81,514Z" fill="#fbffe5" stroke="#fbffe5" stroke-width="1.51"/><path d="M-54,329L38,353L64,232Z" fill="#fdfff2" stroke="#fdfff2" stroke-width="1.51"/><path d="M-32,200L-54,329L64,232Z" fill="#fefff6" stroke="#fefff6" stroke-width="1.51"/><path d="M230,-78L100,-47L203,6Z" fill="#ffffff" stroke="#ffffff" stroke-width="1.51"/><path d="M361,-122L169,-121L230,-78Z" fill="#ffffff" stroke="#ffffff" stroke-width="1.51"/><path d="M868,-147L169,-121L361,-122Z" fill="#fefff4" stroke="#fefff4" stroke-width="1.51"/><path d="M1508,116L1444,6L1414,104Z" fill="#bbe3d5" stroke="#bbe3d5" stroke-width="1.51"/><path d="M52,819L109,933L205,820Z" fill="#d2efe3" stroke="#d2efe3" stroke-width="1.51"/><path d="M169,-121L100,-47L230,-78Z" fill="#ffffff" stroke="#ffffff" stroke-width="1.51"/><path d="M-32,200L64,232L82,144Z" fill="#fffffb" stroke="#fffffb" stroke-width="1.51"/><path d="M1493,170L1508,116L1414,104Z" fill="#b8e1d3" stroke="#b8e1d3" stroke-width="1.51"/><path d="M1541,92L1508,116L1626,148Z" fill="#a7d8c9" stroke="#a7d8c9" stroke-width="1.51"/><path d="M1527,368L1560,283L1468,327Z" fill="#addcbf" stroke="#addcbf" stroke-width="1.51"/><path d="M1611,517L1527,368L1510,548Z" fill="#a4d9b2" stroke="#a4d9b2" stroke-width="1.51"/><path d="M1586,634L1510,548L1501,649Z" fill="#a2dabb" stroke="#a2dabb" stroke-width="1.51"/><path d="M-41,136L-32,200L82,144Z" fill="#fffffe" stroke="#fffffe" stroke-width="1.51"/><path d="M109,933L196,1045L185,929Z" fill="#b2ded0" stroke="#b2ded0" stroke-width="1.51"/><path d="M-80,460L38,353L-50,353Z" fill="#fcffea" stroke="#fcffea" stroke-width="1.51"/><path d="M-80,460L-60,576L81,514Z" fill="#f9ffe8" stroke="#f9ffe8" stroke-width="1.51"/><path d="M-107,447L-50,353L-165,303Z" fill="#fcffec" stroke="#fcffec" stroke-width="1.51"/><path d="M-107,447L-80,460L-50,353Z" fill="#fbffe7" stroke="#fbffe7" stroke-width="1.51"/><path d="M1483,771L1550,731L1477,719Z" fill="#a2ddc5" stroke="#a2ddc5" stroke-width="1.51"/><path d="M1613,764L1550,731L1483,771Z" fill="#97d8c0" stroke="#97d8c0" stroke-width="1.51"/><path d="M1148,1104L1285,1099L1259,990Z" fill="#7dcbb2" stroke="#7dcbb2" stroke-width="1.51"/><path d="M1424,898L1525,898L1483,771Z" fill="#87d0b8" stroke="#87d0b8" stroke-width="1.51"/><path d="M1367,1141L1285,1099L1148,1104Z" fill="#76c7ae" stroke="#76c7ae" stroke-width="1.51"/><path d="M199,1086L292,1151L304,1050Z" fill="#9ad1c2" stroke="#9ad1c2" stroke-width="1.51"/><path d="M351,1140L292,1151L681,1132Z" fill="#99d1b8" stroke="#99d1b8" stroke-width="1.51"/><path d="M1550,731L1586,634L1501,649Z" fill="#9cd9bd" stroke="#9cd9bd" stroke-width="1.51"/><path d="M-57,-21L-41,136L82,144Z" fill="#ffffff" stroke="#ffffff" stroke-width="1.51"/><path d="M-32,200L-126,184L-54,329Z" fill="#fefff7" stroke="#fefff7" stroke-width="1.51"/><path d="M196,1045L199,1086L304,1050Z" fill="#9ad1c2" stroke="#9ad1c2" stroke-width="1.51"/><path d="M30,1098L199,1086L196,1045Z" fill="#9ad1c2" stroke="#9ad1c2" stroke-width="1.51"/><path d="M1508,116L1541,92L1444,6Z" fill="#b2ded0" stroke="#b2ded0" stroke-width="1.51"/><path d="M1468,-70L1409,-138L1424,-13Z" fill="#bfe5d7" stroke="#bfe5d7" stroke-width="1.51"/><path d="M1626,148L1508,116L1493,170Z" fill="#aadacb" stroke="#aadacb" stroke-width="1.51"/><path d="M1586,634L1611,517L1510,548Z" fill="#9dd7b5" stroke="#9dd7b5" stroke-width="1.51"/><path d="M1649,-9L1557,-6L1541,92Z" fill="#a2d6c7" stroke="#a2d6c7" stroke-width="1.51"/><path d="M-80,460L-103,531L-60,576Z" fill="#f8ffe9" stroke="#f8ffe9" stroke-width="1.51"/><path d="M-165,303L-50,353L-54,329Z" fill="#fdffef" stroke="#fdffef" stroke-width="1.51"/><path d="M-107,447L-103,531L-80,460Z" fill="#faffe6" stroke="#faffe6" stroke-width="1.51"/><path d="M-67,791L12,880L52,819Z" fill="#daf3e8" stroke="#daf3e8" stroke-width="1.51"/><path d="M52,819L12,880L109,933Z" fill="#ccece0" stroke="#ccece0" stroke-width="1.51"/><path d="M109,933L30,983L196,1045Z" fill="#addccd" stroke="#addccd" stroke-width="1.51"/><path d="M-67,712L95,685L-60,576Z" fill="#f3fff0" stroke="#f3fff0" stroke-width="1.51"/><path d="M-132,602L-67,712L-60,576Z" fill="#f5ffee" stroke="#f5ffee" stroke-width="1.51"/><path d="M1468,-70L1424,-13L1444,6Z" fill="#bce4d6" stroke="#bce4d6" stroke-width="1.51"/><path d="M1424,-13L1409,-138L1280,-25Z" fill="#caebdf" stroke="#caebdf" stroke-width="1.51"/><path d="M1192,-134L1409,-138L868,-147Z" fill="#f0fff4" stroke="#f0fff4" stroke-width="1.51"/><path d="M1285,1099L1413,1016L1259,990Z" fill="#70c5ac" stroke="#70c5ac" stroke-width="1.51"/><path d="M1557,-6L1468,-70L1444,6Z" fill="#b4dfd1" stroke="#b4dfd1" stroke-width="1.51"/><path d="M-120,703L-67,791L-67,712Z" fill="#f0fff4" stroke="#f0fff4" stroke-width="1.51"/><path d="M-67,712L-67,791L52,819Z" fill="#eafcf1" stroke="#eafcf1" stroke-width="1.51"/><path d="M1471,998L1525,898L1424,898Z" fill="#71c5ab" stroke="#71c5ab" stroke-width="1.51"/><path d="M1550,731L1613,764L1586,634Z" fill="#93d5bb" stroke="#93d5bb" stroke-width="1.51"/><path d="M-103,531L-132,602L-60,576Z" fill="#f7ffeb" stroke="#f7ffeb" stroke-width="1.51"/><path d="M-107,447L-132,602L-103,531Z" fill="#f8ffe9" stroke="#f8ffe9" stroke-width="1.51"/><path d="M169,-121L26,-97L100,-47Z" fill="#ffffff" stroke="#ffffff" stroke-width="1.51"/><path d="M100,-47L-57,-21L82,144Z" fill="#ffffff" stroke="#ffffff" stroke-width="1.51"/><path d="M-10,976L30,983L12,880Z" fill="#b9e2d4" stroke="#b9e2d4" stroke-width="1.51"/><path d="M12,880L30,983L109,933Z" fill="#bde4d6" stroke="#bde4d6" stroke-width="1.51"/><path d="M199,1086L30,1098L292,1151Z" fill="#9ad1c2" stroke="#9ad1c2" stroke-width="1.51"/><path d="M1413,1016L1471,998L1424,898Z" fill="#6cc3a9" stroke="#6cc3a9" stroke-width="1.51"/><path d="M1467,1077L1471,998L1413,1016Z" fill="#55b89e" stroke="#55b89e" stroke-width="1.51"/><path d="M-132,602L-120,703L-67,712Z" fill="#f3fff0" stroke="#f3fff0" stroke-width="1.51"/><path d="M-95,874L-10,976L12,880Z" fill="#c3e7da" stroke="#c3e7da" stroke-width="1.51"/><path d="M1541,92L1557,-6L1444,6Z" fill="#b0ddce" stroke="#b0ddce" stroke-width="1.51"/><path d="M1468,-70L1577,-58L1409,-138Z" fill="#b5e0d2" stroke="#b5e0d2" stroke-width="1.51"/><path d="M1645,217L1493,170L1560,283Z" fill="#a5d7c2" stroke="#a5d7c2" stroke-width="1.51"/><path d="M1702,309L1645,217L1560,283Z" fill="#99d1b8" stroke="#99d1b8" stroke-width="1.51"/><path d="M1554,909L1613,764L1525,898Z" fill="#75c7ae" stroke="#75c7ae" stroke-width="1.51"/><path d="M1525,898L1613,764L1483,771Z" fill="#89d1b8" stroke="#89d1b8" stroke-width="1.51"/><path d="M1685,621L1677,473L1611,517Z" fill="#93d1ad" stroke="#93d1ad" stroke-width="1.51"/><path d="M1611,517L1677,473L1527,368Z" fill="#9bd3ab" stroke="#9bd3ab" stroke-width="1.51"/><path d="M1645,217L1626,148L1493,170Z" fill="#a1d5c4" stroke="#a1d5c4" stroke-width="1.51"/><path d="M-142,131L-126,184L-41,136Z" fill="#ffffff" stroke="#ffffff" stroke-width="1.51"/><path d="M-41,136L-126,184L-32,200Z" fill="#fffffc" stroke="#fffffc" stroke-width="1.51"/><path d="M-107,447L-165,303L-132,602Z" fill="#fbffe5" stroke="#fbffe5" stroke-width="1.51"/><path d="M1685,621L1611,517L1586,634Z" fill="#90d1b0" stroke="#90d1b0" stroke-width="1.51"/><path d="M1471,998L1554,909L1525,898Z" fill="#66c0a6" stroke="#66c0a6" stroke-width="1.51"/><path d="M26,-97L-25,-60L100,-47Z" fill="#ffffff" stroke="#ffffff" stroke-width="1.51"/><path d="M1285,1099L1367,1141L1413,1016Z" fill="#62bea5" stroke="#62bea5" stroke-width="1.51"/><path d="M1471,998L1539,1054L1554,909Z" fill="#53b89d" stroke="#53b89d" stroke-width="1.51"/><path d="M681,1132L1367,1141L812,1115Z" fill="#90d1b1" stroke="#90d1b1" stroke-width="1.51"/><path d="M292,1151L1367,1141L681,1132Z" fill="#95d1aa" stroke="#95d1aa" stroke-width="1.51"/><path d="M-126,184L-165,303L-54,329Z" fill="#fefff4" stroke="#fefff4" stroke-width="1.51"/><path d="M1626,148L1633,124L1541,92Z" fill="#9fd4c5" stroke="#9fd4c5" stroke-width="1.51"/><path d="M1645,217L1633,124L1626,148Z" fill="#9ad1c0" stroke="#9ad1c0" stroke-width="1.51"/><path d="M-25,-60L-57,-21L100,-47Z" fill="#ffffff" stroke="#ffffff" stroke-width="1.51"/><path d="M-95,874L12,880L-67,791Z" fill="#d5f1e5" stroke="#d5f1e5" stroke-width="1.51"/><path d="M30,983L30,1098L196,1045Z" fill="#9ed3c4" stroke="#9ed3c4" stroke-width="1.51"/><path d="M1692,656L1586,634L1613,764Z" fill="#8cd1b5" stroke="#8cd1b5" stroke-width="1.51"/><path d="M1692,656L1685,621L1586,634Z" fill="#8ed1b2" stroke="#8ed1b2" stroke-width="1.51"/><path d="M-147,46L-142,131L-41,136Z" fill="#ffffff" stroke="#ffffff" stroke-width="1.51"/><path d="M-126,184L-142,131L-165,303Z" fill="#fffffa" stroke="#fffffa" stroke-width="1.51"/><path d="M1645,217L1702,309L1633,124Z" fill="#99d1bc" stroke="#99d1bc" stroke-width="1.51"/><path d="M1710,396L1702,309L1527,368Z" fill="#98d1b0" stroke="#98d1b0" stroke-width="1.51"/><path d="M1710,396L1527,368L1677,473Z" fill="#97d1ac" stroke="#97d1ac" stroke-width="1.51"/><path d="M1685,621L1710,396L1677,473Z" fill="#95d1ab" stroke="#95d1ab" stroke-width="1.51"/><path d="M1367,1141L1467,1077L1413,1016Z" fill="#54b89e" stroke="#54b89e" stroke-width="1.51"/><path d="M-140,842L-95,874L-67,791Z" fill="#d8f3e7" stroke="#d8f3e7" stroke-width="1.51"/><path d="M1649,-9L1577,-58L1557,-6Z" fill="#a0d5c6" stroke="#a0d5c6" stroke-width="1.51"/><path d="M1557,-6L1577,-58L1468,-70Z" fill="#acdbcc" stroke="#acdbcc" stroke-width="1.51"/><path d="M1649,-9L1541,92L1633,124Z" fill="#9ed3c4" stroke="#9ed3c4" stroke-width="1.51"/><path d="M1685,621L1692,656L1710,396Z" fill="#92d1ae" stroke="#92d1ae" stroke-width="1.51"/><path d="M1720,824L1692,656L1613,764Z" fill="#88d1b8" stroke="#88d1b8" stroke-width="1.51"/><path d="M1720,824L1613,764L1554,909Z" fill="#70c5ab" stroke="#70c5ab" stroke-width="1.51"/><path d="M-20,1081L30,983L-10,976Z" fill="#a6d8c9" stroke="#a6d8c9" stroke-width="1.51"/><path d="M-20,1081L30,1098L30,983Z" fill="#9ad1c2" stroke="#9ad1c2" stroke-width="1.51"/><path d="M-140,973L-20,1081L-10,976Z" fill="#a7d8c9" stroke="#a7d8c9" stroke-width="1.51"/><path d="M-120,703L-140,842L-67,791Z" fill="#e8fbf0" stroke="#e8fbf0" stroke-width="1.51"/><path d="M-132,602L-140,842L-120,703Z" fill="#f1fff3" stroke="#f1fff3" stroke-width="1.51"/><path d="M-165,303L-140,842L-132,602Z" fill="#f6ffec" stroke="#f6ffec" stroke-width="1.51"/><path d="M-57,-21L-147,46L-41,136Z" fill="#ffffff" stroke="#ffffff" stroke-width="1.51"/><path d="M-142,131L-147,46L-165,303Z" fill="#fffffe" stroke="#fffffe" stroke-width="1.51"/><path d="M-123,-90L-147,46L-57,-21Z" fill="#ffffff" stroke="#ffffff" stroke-width="1.51"/><path d="M1467,1077L1539,1054L1471,998Z" fill="#46b298" stroke="#46b298" stroke-width="1.51"/><path d="M1623,1150L1539,1054L1467,1077Z" fill="#31ab91" stroke="#31ab91" stroke-width="1.51"/><path d="M1702,309L1649,-9L1633,124Z" fill="#9ad1c2" stroke="#9ad1c2" stroke-width="1.51"/><path d="M-140,973L-10,976L-95,874Z" fill="#bae2d5" stroke="#bae2d5" stroke-width="1.51"/><path d="M1539,1054L1633,952L1554,909Z" fill="#4bb49a" stroke="#4bb49a" stroke-width="1.51"/><path d="M-25,-60L-123,-90L-57,-21Z" fill="#ffffff" stroke="#ffffff" stroke-width="1.51"/><path d="M26,-97L-123,-90L-25,-60Z" fill="#ffffff" stroke="#ffffff" stroke-width="1.51"/><path d="M169,-121L-123,-90L26,-97Z" fill="#ffffff" stroke="#ffffff" stroke-width="1.51"/><path d="M1633,952L1720,824L1554,909Z" fill="#5bbba1" stroke="#5bbba1" stroke-width="1.51"/><path d="M1692,656L1720,824L1710,396Z" fill="#8fd1b2" stroke="#8fd1b2" stroke-width="1.51"/><path d="M-140,842L-140,973L-95,874Z" fill="#c7e9dd" stroke="#c7e9dd" stroke-width="1.51"/><path d="M-153,1123L-140,973L-140,842Z" fill="#b0ddce" stroke="#b0ddce" stroke-width="1.51"/><path d="M1649,-9L1657,-89L1577,-58Z" fill="#9ad1c2" stroke="#9ad1c2" stroke-width="1.51"/><path d="M1577,-58L1657,-89L1409,-138Z" fill="#a9d9cb" stroke="#a9d9cb" stroke-width="1.51"/><path d="M1702,309L1657,-89L1649,-9Z" fill="#9ad1c2" stroke="#9ad1c2" stroke-width="1.51"/><path d="M1633,952L1712,1028L1720,824Z" fill="#4cb59b" stroke="#4cb59b" stroke-width="1.51"/><path d="M1539,1054L1712,1028L1633,952Z" fill="#2aa98f" stroke="#2aa98f" stroke-width="1.51"/><path d="M1367,1141L1623,1150L1467,1077Z" fill="#43b197" stroke="#43b197" stroke-width="1.51"/><path d="M292,1151L1623,1150L1367,1141Z" fill="#8bd1b5" stroke="#8bd1b5" stroke-width="1.51"/><path d="M1623,1150L1712,1028L1539,1054Z" fill="#03a388" stroke="#03a388" stroke-width="1.51"/><path d="M-140,973L-153,1123L-20,1081Z" fill="#9ad1c2" stroke="#9ad1c2" stroke-width="1.51"/><path d="M-20,1081L-153,1123L30,1098Z" fill="#9ad1c2" stroke="#9ad1c2" stroke-width="1.51"/><path d="M30,1098L-153,1123L292,1151Z" fill="#9ad1c2" stroke="#9ad1c2" stroke-width="1.51"/><path d="M-165,303L-153,1123L-140,842Z" fill="#effff4" stroke="#effff4" stroke-width="1.51"/><path d="M1623,1150L1720,1112L1712,1028Z" fill="#00a388" stroke="#00a388" stroke-width="1.51"/><path d="M1712,1028L1720,1112L1720,824Z" fill="#36ad92" stroke="#36ad92" stroke-width="1.51"/></svg>